<?xml version="1.0" encoding="utf-8"?>
<!-- Generator: Adobe Illustrator 22.1.0, SVG Export Plug-In . SVG Version: 6.00 Build 0)  -->
<svg version="1.1" id="Layer_1" xmlns="http://www.w3.org/2000/svg" xmlns:xlink="http://www.w3.org/1999/xlink" x="0px" y="0px"
	 viewBox="0 0 160 160" style="enable-background:new 0 0 160 160;" xml:space="preserve">
<style type="text/css">
	.st0{fill:#FFC700;}
	.st1{fill:#F000FF;}
	.st2{fill:#23649E;}
	.st3{fill:#ED3445;}
	.st4{fill:#00A651;}
	.st5{fill:#8BC34A;}
	.st6{fill:#3993BB;}
	.st7{fill:#A767DD;}
</style>
<g>
	<path class="st0" d="M130.8,109.5L130.8,109.5l-8.8-5.1c-2.1,3.6-4.7,7-7.7,10c-9.2,9.2-21.4,14.2-34.4,14.2v10.2v1.7v12.6
		c27,0,50.6-14.7,63.3-36.4L130.8,109.5z"/>
	<path class="st1" d="M59.5,124.1l-4.3,9.2h0l-6.1,13c9.4,4.4,19.8,6.8,30.9,6.8v-12.6v-1.7v-10.2C72.8,128.6,65.8,127,59.5,124.1z"
		/>
	<path class="st2" d="M153.1,80c0-2.4-0.1-4.7-0.3-7l-14.3,1.4c0,0,0,0,0,0l-10.1,1c0.1,1.5,0.2,3.1,0.2,4.7
		c0,8.7-2.3,17.1-6.5,24.4l10.3,6v0l10.9,6.3C149.5,105.9,153.1,93.4,153.1,80z"/>
	<path class="st3" d="M59.5,124.1c-5.1-2.4-9.8-5.6-13.8-9.7c-1.4-1.4-2.7-2.9-3.9-4.4c-6.7-8.5-10.3-19-10.3-30
		c0-8.7,2.3-17.1,6.5-24.4l-10.3-6l0,0l-10.9-6.3C10.5,54.1,6.9,66.6,6.9,80c0,17,5.8,32.6,15.5,45.1c7.1,9,16.2,16.3,26.7,21.2
		l5.3-11.5l0,0L59.5,124.1z"/>
	<path class="st4" d="M16.7,43.3l12.4,7.2l0,0l8.8,5.1c2.1-3.6,4.7-7,7.7-10C54.8,36.5,67,31.4,80,31.4V21.2v-1.7V6.9
		C53,6.9,29.4,21.5,16.7,43.3z"/>
	<path class="st5" d="M137.6,34.9c-7.1-9-16.2-16.3-26.7-21.2l-5.3,11.5l0,0l-5,10.8c5.1,2.4,9.8,5.6,13.8,9.7
		c1.4,1.4,2.7,2.9,3.9,4.4l9.4-7.3l0,0L137.6,34.9z"/>
	<path class="st6" d="M110.9,13.7C101.5,9.3,91,6.9,80,6.9v12.6v1.7v10.2c7.2,0,14.2,1.6,20.5,4.5l4.3-9.2l0,0L110.9,13.7z"/>
	<path class="st7" d="M152.8,73c-1.4-14.3-6.8-27.3-15.2-38l-11.3,8.9v0l-8,6.3c5.7,7.3,9.2,16,10.1,25.3l11.8-1.1c0,0,0,0,0,0
		L152.8,73z"/>
</g>
</svg>
