<svg id="Layer_1" data-name="Layer 1" xmlns="http://www.w3.org/2000/svg" viewBox="0 0 200 200"><title>ico_roboadvisory</title><path d="M49.0758,61.1741a23.5191,23.5191,0,0,0,1.7835,4.93c-1.081,1.5826-6.2229,9.537-6.4986,11.0845a.7556.7556,0,0,0,.2365.6627c.9245.7853,9.16,7.8407,9.59,7.9174l.5464-.08a78.5335,78.5335,0,0,0,9.6252-8.22c.8442.2388,1.6892.4777,2.5487.6307s1.7349.2207,2.6095.288C70.1474,79.83,75.08,89.49,76.1973,89.6892c.43.0767,10.61-3.7874,11.7335-4.12a.756.756,0,0,0,.4509-.54c.26-1.4617-1.8039-10.7881-2.2721-12.6465a23.5114,23.5114,0,0,0,3.3762-4.0114c1.75.1348,13.0554.9072,13.2853-.3832l2.1438-12.0369c.23-1.29-10.6469-4.4687-12.3359-4.9464a21.1388,21.1388,0,0,0-1.7836-4.9305c1.081-1.5825,6.2382-9.6227,6.4985-11.0844a.7557.7557,0,0,0-.2364-.6627c-.9245-.7853-9.1443-7.9265-9.5744-8.0031-1.1173-.199-9.0973,7.25-10.187,8.3856-.8442-.2388-1.6892-.4777-2.5485-.6308s-1.735-.2206-2.61-.288c-.6308-1.4419-5.5481-11.188-6.6654-11.387-.43-.0766-10.61,3.7874-11.7487,4.2052a.6574.6574,0,0,0-.4508.54c-.2755,1.5474,1.8039,10.788,2.2719,12.6465a21.1342,21.1342,0,0,0-3.3761,4.0114c-1.75-.1349-13.0554-.9072-13.2854.3832L36.74,56.2276C36.51,57.518,47.3866,60.6964,49.0758,61.1741Zm10.7464-7.0447a11.1784,11.1784,0,1,1,9.0451,12.9653A11.2,11.2,0,0,1,59.8222,54.1294Z"/><path d="M187.1761,127.2914l-12.0893-5.8706a46.4265,46.4265,0,0,0-.8389-7.7407c3.4149-2.5214,6.8626-4.8489,10.2516-7.2853a2.9791,2.9791,0,0,0,1.068-1.4107c.7375-2.4228-6.4-14.3625-7.9614-17.0286a2.82,2.82,0,0,0-1.5514-1.2035,2.5148,2.5148,0,0,0-1.8487.0776l-12.122,4.4342a43.0008,43.0008,0,0,0-5.4779-4.4968l1.97-13.3687a2.7092,2.7092,0,0,0-1.8705-2.8511l-15.54-4.73a2.7818,2.7818,0,0,0-3.1165,1.242,87.2248,87.2248,0,0,0-5.8635,12.3653,37.3387,37.3387,0,0,0-7.2217.6311l-7.3189-10.4428a3.2906,3.2906,0,0,0-1.5759-1.12c-2.4229-.7375-14.8831,6.6068-17.2409,8.3544A2.3071,2.3071,0,0,0,97.76,78.2561a3.0188,3.0188,0,0,0,.0756,1.85c1.7073,3.9878,3.273,7.843,4.5945,11.8971a39.7032,39.7032,0,0,0-4.6062,5.5356l-13.56-1.9368A2.7224,2.7224,0,0,0,81.58,97.5229l-4.705,15.4564a2.7058,2.7058,0,0,0,1.2422,3.1165l12.1147,5.7873a56.3485,56.3485,0,0,0,.7547,7.7152c-3.3308,2.5468-6.7532,4.7911-10.1675,7.3108a2.98,2.98,0,0,0-1.0681,1.4106c-.7122,2.34,6.4,14.3625,7.9616,17.0287a2.82,2.82,0,0,0,1.5513,1.2035,2.668,2.668,0,0,0,1.8487-.0776l12.122-4.4342a43.0017,43.0017,0,0,0,5.478,4.4968l-1.97,13.3687a2.7089,2.7089,0,0,0,1.8706,2.851l15.54,4.73a2.7818,2.7818,0,0,0,3.1165-1.2421,87.7011,87.7011,0,0,0,5.8382-12.282,45.4124,45.4124,0,0,0,7.2471-.7144l7.3188,10.4429a3.2914,3.2914,0,0,0,1.576,1.12c2.4228.7375,14.8576-6.5235,17.2155-8.2712a2.67,2.67,0,0,0,1.0929-1.4923,3.2522,3.2522,0,0,0-.0755-1.85c-1.7074-3.9878-3.2731-7.8431-4.5946-11.8971a39.711,39.711,0,0,0,4.6063-5.5356l13.56,1.9368a2.7224,2.7224,0,0,0,2.6844-1.9212l4.7049-15.4564A2.54,2.54,0,0,0,187.1761,127.2914Zm-33.1289.8709A22.3568,22.3568,0,1,1,139.17,100.264,22.4005,22.4005,0,0,1,154.0472,128.1623Z"/><path d="M67.1132,141.37a21.1337,21.1337,0,0,0-.6778-5.1991c1.3969-1.312,8.1675-8.05,8.7372-9.4212a.7565.7565,0,0,0-.088-.6981c-.7333-.9663-7.2187-9.7128-7.6222-9.88-1.048-.4355-10.4471,5.1163-11.7563,5.99-.7727-.4153-1.5462-.8309-2.3523-1.1658s-1.6466-.59-2.4861-.8442c-.3048-1.5441-3.0033-12.1215-4.0515-12.557-.4034-.1676-11.1772,1.409-12.3793,1.5713a.6572.6572,0,0,0-.5567.43c-.603,1.4516-.5663,10.9232-.51,12.8388a21.1458,21.1458,0,0,0-4.1622,3.1886c-1.68-.5094-12.552-3.7027-13.0549-2.4924l-4.69,11.2908c-.5028,1.21,9.4319,6.6607,10.9782,7.4916a23.5248,23.5248,0,0,0,.6777,5.1992c-1.3969,1.312-8.134,7.97-8.7371,9.4211a.7561.7561,0,0,0,.088.6982c.7332.9662,7.252,9.6324,7.6555,9.8l.5507.04a78.5485,78.5485,0,0,0,11.1721-5.95c.7728.4152,1.5464.8309,2.3526,1.1658s1.6464.59,2.4861.8442c.3046,1.5441,3.0366,12.0411,4.0847,12.4765.4034.1676,11.1773-1.409,12.346-1.4908a.7559.7559,0,0,0,.5567-.43c.57-1.3712.5664-10.9233.51-12.8389a23.5138,23.5138,0,0,0,4.1623-3.1885c1.68.5093,12.5522,3.7027,13.055,2.4923l4.69-11.2908C78.5942,147.6509,68.66,142.2005,67.1132,141.37ZM55.1,145.93a11.1784,11.1784,0,1,1-6.0347-14.6115A11.257,11.257,0,0,1,55.1,145.93Z"/></svg>