<svg id="Layer_1" data-name="Layer 1" xmlns="http://www.w3.org/2000/svg" viewBox="0 0 200 200"><title>ico_fintech</title><path d="M174,166.0707A7.93,7.93,0,0,1,166.0714,174H86.7857a7.93,7.93,0,0,1-7.9286-7.9293V152.8571H33.9286A7.93,7.93,0,0,1,26,144.9278V33.9293A7.93,7.93,0,0,1,33.9286,26h89.8571a7.93,7.93,0,0,1,7.9286,7.9293V61.018a15.9452,15.9452,0,0,1,2.9729,2.3128l33.697,33.6963A21.8732,21.8732,0,0,1,174,110.5714ZM110.5714,39.2135a2.7177,2.7177,0,0,0-2.6428-2.6421H49.7857a2.7177,2.7177,0,0,0-2.6428,2.6421v5.2873a2.7177,2.7177,0,0,0,2.6428,2.6421h58.1429a2.7177,2.7177,0,0,0,2.6428-2.6421Zm52.8572,124.2151V110.5714H129.0714a7.93,7.93,0,0,1-7.9285-7.9293V68.2857H89.4286v95.1429ZM156.4086,100,131.7143,75.3064V100Z"/></svg>